<?xml version="1.0" standalone="no"?><!DOCTYPE svg PUBLIC "-//W3C//DTD SVG 1.1//EN" "http://www.w3.org/Graphics/SVG/1.1/DTD/svg11.dtd"><svg t="1521179865456" class="icon" style="" viewBox="0 0 1260 1024" version="1.1" xmlns="http://www.w3.org/2000/svg" p-id="8933" xmlns:xlink="http://www.w3.org/1999/xlink" width="246.09375" height="200"><defs><style type="text/css"></style></defs><path d="M1128.49272 1023.772994h-236.191534a128.82936 128.82936 0 0 1-131.217519-131.217519l0.367409-234.406977h-263.1961l0.393652 234.406977a128.855604 128.855604 0 0 1-131.217519 131.217519h-236.191534a123.738121 123.738121 0 0 1-131.21752-124.892835V131.493863a128.82936 128.82936 0 0 1 131.21752-131.217519h236.191534a122.60965 122.60965 0 0 1 130.823867 123.816851v240.731661h263.1961v-240.731661A122.635893 122.635893 0 0 1 892.301186 0.276344h236.191534a128.82936 128.82936 0 0 1 131.21752 131.217519v761.061612a128.82936 128.82936 0 0 1-131.21752 131.217519z m-708.574603-446.139566h419.896061v314.922047c0 35.297513 13.41043 52.487008 52.487008 52.487007h236.191534c39.076577 0 52.487008-17.189495 52.487008-52.487007v-761.061612c0-35.297513-13.41043-52.487008-52.487008-52.487007h-236.191534c-39.076577 0-52.487008 17.189495-52.487008 52.487007v314.922046h-419.896061v-314.922046c0-35.297513-21.860839-45.191314-60.937416-45.191313h-219.631884c-39.076577 0-60.59625 9.893801-60.59625 45.191313v761.061612c0 35.297513 13.41043 52.487008 52.487008 52.487007h236.191534c39.076577 0 52.487008-17.189495 52.487008-52.487007z" fill="#ffffff" p-id="8934"></path></svg>